<svg xmlns="http://www.w3.org/2000/svg" xmlns:xlink="http://www.w3.org/1999/xlink" version="1.1" width="1000" height="1000" viewBox="0 0 1000 1000" xml:space="preserve">
<desc>Created with Fabric.js 3.5.0</desc>
<defs>
</defs>
<rect x="0" y="0" width="100%" height="100%" fill="#ffffff"/>
<g transform="matrix(-0.3906 0 0 0.3906 943.0447 942.0447)" id="75510">
<g style="" vector-effect="non-scaling-stroke">
		<g transform="matrix(0.2125 0 0 0.2125 -15.0674 -28.0187)" id="SVGRepo_iconCarrier">
<path style="stroke: none; stroke-width: 1; stroke-dasharray: none; stroke-linecap: butt; stroke-dashoffset: 0; stroke-linejoin: miter; stroke-miterlimit: 4; is-custom-font: none; font-file-url: none; fill: rgb(0,0,0); fill-rule: nonzero; opacity: 1;" transform=" translate(-79.6825, -18.736)" d="M 159.365 23.736 v -10 c 0 -5.523 -4.477 -10 -10 -10 H 10 c -5.523 0 -10 4.477 -10 10 v 10 c 0 5.523 4.477 10 10 10 h 139.365 C 154.888 33.736 159.365 29.259 159.365 23.736 z" stroke-linecap="round"/>
</g>
		<g transform="matrix(0.2125 0 0 0.2125 -17.0627 -14.6331)" id="SVGRepo_iconCarrier">
<path style="stroke: none; stroke-width: 1; stroke-dasharray: none; stroke-linecap: butt; stroke-dashoffset: 0; stroke-linejoin: miter; stroke-miterlimit: 4; is-custom-font: none; font-file-url: none; fill: rgb(0,0,0); fill-rule: nonzero; opacity: 1;" transform=" translate(-70.293, -81.736)" d="M 130.586 66.736 H 10 c -5.523 0 -10 4.477 -10 10 v 10 c 0 5.523 4.477 10 10 10 h 120.586 c 5.523 0 10 -4.477 10 -10 v -10 C 140.586 71.213 136.109 66.736 130.586 66.736 z" stroke-linecap="round"/>
</g>
		<g transform="matrix(0.2125 0 0 0.2125 -19.0582 -1.2475)" id="SVGRepo_iconCarrier">
<path style="stroke: none; stroke-width: 1; stroke-dasharray: none; stroke-linecap: butt; stroke-dashoffset: 0; stroke-linejoin: miter; stroke-miterlimit: 4; is-custom-font: none; font-file-url: none; fill: rgb(0,0,0); fill-rule: nonzero; opacity: 1;" transform=" translate(-60.9025, -144.736)" d="M 111.805 129.736 H 10 c -5.523 0 -10 4.477 -10 10 v 10 c 0 5.523 4.477 10 10 10 h 101.805 c 5.523 0 10 -4.477 10 -10 v -10 C 121.805 134.213 117.328 129.736 111.805 129.736 z" stroke-linecap="round"/>
</g>
		<g transform="matrix(0.2125 0 0 0.2125 -21.0535 13.6254)" id="SVGRepo_iconCarrier">
<path style="stroke: none; stroke-width: 1; stroke-dasharray: none; stroke-linecap: butt; stroke-dashoffset: 0; stroke-linejoin: miter; stroke-miterlimit: 4; is-custom-font: none; font-file-url: none; fill: rgb(0,0,0); fill-rule: nonzero; opacity: 1;" transform=" translate(-51.5125, -214.736)" d="M 93.025 199.736 H 10 c -5.523 0 -10 4.477 -10 10 v 10 c 0 5.523 4.477 10 10 10 h 83.025 c 5.522 0 10 -4.477 10 -10 v -10 C 103.025 204.213 98.548 199.736 93.025 199.736 z" stroke-linecap="round"/>
</g>
		<g transform="matrix(0.2125 0 0 0.2125 -23.049 27.0111)" id="SVGRepo_iconCarrier">
<path style="stroke: none; stroke-width: 1; stroke-dasharray: none; stroke-linecap: butt; stroke-dashoffset: 0; stroke-linejoin: miter; stroke-miterlimit: 4; is-custom-font: none; font-file-url: none; fill: rgb(0,0,0); fill-rule: nonzero; opacity: 1;" transform=" translate(-42.122, -277.736)" d="M 74.244 262.736 H 10 c -5.523 0 -10 4.477 -10 10 v 10 c 0 5.523 4.477 10 10 10 h 64.244 c 5.522 0 10 -4.477 10 -10 v -10 C 84.244 267.213 79.767 262.736 74.244 262.736 z" stroke-linecap="round"/>
</g>
		<g transform="matrix(0.2125 0 0 0.2125 16.3781 0.5355)" id="SVGRepo_iconCarrier">
<path style="stroke: none; stroke-width: 1; stroke-dasharray: none; stroke-linecap: butt; stroke-dashoffset: 0; stroke-linejoin: miter; stroke-miterlimit: 4; is-custom-font: none; font-file-url: none; fill: rgb(0,0,0); fill-rule: nonzero; opacity: 1;" transform=" translate(-227.6834, -153.1095)" d="M 298.29 216.877 l -7.071 -7.071 c -1.875 -1.875 -4.419 -2.929 -7.071 -2.929 c -2.652 0 -5.196 1.054 -7.072 2.929 l -34.393 34.393 V 18.736 c 0 -5.523 -4.477 -10 -10 -10 h -10 c -5.523 0 -10 4.477 -10 10 v 225.462 l -34.393 -34.393 c -1.876 -1.875 -4.419 -2.929 -7.071 -2.929 c -2.652 0 -5.196 1.054 -7.071 2.929 l -7.072 7.071 c -3.904 3.905 -3.904 10.237 0 14.142 l 63.536 63.536 c 1.953 1.953 4.512 2.929 7.071 2.929 c 2.559 0 5.119 -0.976 7.071 -2.929 l 63.536 -63.536 C 302.195 227.113 302.195 220.781 298.29 216.877 z" stroke-linecap="round"/>
</g>
</g>
</g>
</svg>